<?xml version="1.0" encoding="utf-8"?>
<!-- Generator: Adobe Illustrator 19.0.0, SVG Export Plug-In . SVG Version: 6.00 Build 0)  -->
<svg version="1.1" id="Camada_1" xmlns="http://www.w3.org/2000/svg" xmlns:xlink="http://www.w3.org/1999/xlink" x="0px" y="0px"
	 viewBox="0 0 75 75" style="enable-background:new 0 0 75 75;" xml:space="preserve">
<path id="XMLID_8_" d="M73.3,35.4c0-4.8-6.6-8.8-14.8-8.8c-1.5,0-2.9,0.1-4.3,0.4c-1.6-5-7.5-8.7-14.6-8.7c-5.6,0-10.5,2.4-13.1,5.8
	c-2.6-1.8-6.1-2.8-9.9-2.8c-8.3,0-15,5.1-15,11.3c0,4.2,3.1,7.9,7.6,9.9c-1,1.5-1.6,3.3-1.6,5.1c0,6.3,6.7,11.3,15,11.3
	c5.5,0,10.3-2.2,12.9-5.5c2.7,3.5,7.5,5.9,13,5.9c8.4,0,15.2-5.4,15.2-12.2c0-1.2-0.2-2.3-0.6-3.4C69,42.6,73.3,39.3,73.3,35.4z"/>
</svg>
